<svg width="167" height="103" viewBox="0 0 167 103" fill="none" xmlns="http://www.w3.org/2000/svg">
<path fill-rule="evenodd" clip-rule="evenodd" d="M160 15.75C163.866 15.75 167 18.884 167 22.75C167 26.616 163.866 29.75 160 29.75H120C123.866 29.75 127 32.884 127 36.75C127 40.616 123.866 43.75 120 43.75H142C145.866 43.75 149 46.884 149 50.75C149 54.616 145.866 57.75 142 57.75H131.826C126.952 57.75 123 60.884 123 64.75C123 67.327 125 69.661 129 71.75C132.866 71.75 136 74.884 136 78.75C136 82.616 132.866 85.75 129 85.75H46C42.134 85.75 39 82.616 39 78.75C39 74.884 42.134 71.75 46 71.75H7C3.134 71.75 0 68.616 0 64.75C0 60.884 3.134 57.75 7 57.75H47C50.866 57.75 54 54.616 54 50.75C54 46.884 50.866 43.75 47 43.75H22C18.134 43.75 15 40.616 15 36.75C15 32.884 18.134 29.75 22 29.75H62C58.134 29.75 55 26.616 55 22.75C55 18.884 58.134 15.75 62 15.75H160ZM160 43.75C163.866 43.75 167 46.884 167 50.75C167 54.616 163.866 57.75 160 57.75C156.134 57.75 153 54.616 153 50.75C153 46.884 156.134 43.75 160 43.75Z" fill="#DEDEDE"/>
<path fill-rule="evenodd" clip-rule="evenodd" d="M106.672 14.75L115.974 82.593L116.809 89.399C117.079 91.592 115.519 93.587 113.327 93.857L54.7661 101.047C52.5739 101.316 50.5781 99.757 50.3089 97.564L41.2932 24.1368C41.1585 23.0404 41.9382 22.0425 43.0345 21.9079C43.0414 21.9071 43.0484 21.9063 43.0553 21.9055L47.9137 21.3605" fill="white"/>
<path d="M107.91 14.5802C107.816 13.8963 107.186 13.4178 106.502 13.5116C105.818 13.6054 105.34 14.2359 105.433 14.9198L107.91 14.5802ZM115.974 82.593L117.214 82.44C117.214 82.435 117.213 82.429 117.212 82.423L115.974 82.593ZM48.0529 22.6027C48.739 22.5258 49.2327 21.9072 49.1558 21.2212C49.0788 20.5351 48.4603 20.0413 47.7742 20.1183L48.0529 22.6027ZM51.7028 19.6776C51.0167 19.7546 50.5229 20.3731 50.5999 21.0592C50.6768 21.7452 51.2954 22.239 51.9814 22.162L51.7028 19.6776ZM56.568 21.6475C57.255 21.5705 57.748 20.952 57.671 20.2659C57.594 19.5799 56.976 19.0861 56.29 19.1631L56.568 21.6475ZM105.433 14.9198L114.735 82.763L117.212 82.423L107.91 14.5802L105.433 14.9198ZM114.733 82.745L115.569 89.551L118.05 89.247L117.214 82.44L114.733 82.745ZM115.569 89.551C115.754 91.059 114.682 92.431 113.174 92.616L113.479 95.097C116.357 94.744 118.403 92.125 118.05 89.247L115.569 89.551ZM113.174 92.616L54.614 99.806L54.919 102.288L113.479 95.097L113.174 92.616ZM54.614 99.806C53.107 99.991 51.7346 98.919 51.5495 97.412L49.0681 97.717C49.4215 100.595 52.0409 102.641 54.919 102.288L54.614 99.806ZM51.5495 97.412L42.5337 23.9844L40.0524 24.2891L49.0681 97.717L51.5495 97.412ZM42.5337 23.9844C42.4833 23.5733 42.7756 23.1991 43.1867 23.1486L42.8821 20.6673C41.1005 20.886 39.8336 22.5076 40.0524 24.2891L42.5337 23.9844ZM43.1867 23.1486C43.1893 23.1483 43.1919 23.148 43.1945 23.1477L42.9159 20.6633C42.9046 20.6645 42.8933 20.6659 42.8821 20.6673L43.1867 23.1486ZM43.1945 23.1477L48.0529 22.6027L47.7742 20.1183L42.9159 20.6633L43.1945 23.1477ZM51.9814 22.162L56.568 21.6475L56.29 19.1631L51.7028 19.6776L51.9814 22.162ZM56.29 19.1631L51.7028 19.6776L51.9814 22.162L56.568 21.6475L56.29 19.1631Z" fill="#333333"/>
<path fill-rule="evenodd" clip-rule="evenodd" d="M104.14 19.0192L112.56 80.503L113.317 86.671C113.561 88.658 112.167 90.465 110.203 90.706L57.7609 97.145C55.7979 97.386 54.0079 95.97 53.7639 93.983L45.614 27.6068C45.4794 26.5105 46.259 25.5126 47.3554 25.378L53.8429 24.5814" fill="#E1E1E1"/>
<path d="M63.6719 2H109.229C109.958 2 110.657 2.2895 111.173 2.8049L124.616 16.2398C125.132 16.7556 125.422 17.4553 125.422 18.1849V80.75C125.422 82.269 124.191 83.5 122.672 83.5H63.6719C62.1529 83.5 60.9219 82.269 60.9219 80.75V4.75C60.9219 3.2312 62.1529 2 63.6719 2Z" fill="white" stroke="#333333" stroke-width="2.5"/>
<path d="M109.672 3.15283V14.75C109.672 16.4069 111.015 17.75 112.672 17.75H120.605" stroke="#333333" stroke-width="2.5" stroke-linecap="round" stroke-linejoin="round"/>
<path d="M71 68.75H97M71 17.75H97M71 29.75H114M71 42.75H114M71 55.75H114" stroke="#2A313F" stroke-width="2.5" stroke-linecap="round" stroke-linejoin="round"/>
</svg>
